P2
#imagem9.pgm
60 100
255
47 38 39 15 43 7 7 22 2 24 29 27 43 20 29 34 52 55 15 22 42 55 39 41 39 33 28 7 11 23 19 46 46 25 36 41 29 17 21 6 51 4 29 35 50 30 4 40 50 29 10 33 49 25 21 3 35 2 23 33 36 10 46 7 12 20 21 31 35 46 44 50 29 43 20 2 55 4 46 21 19 32 28 52 0 17 0 37 30 34 27 46 32 13 1 51 2 25 27 41 45 21 12 36 1 30 49 22 27 31 51 25 47 1 31 7 8 48 7 0 37 9 50 36 6 49 42 9 8 16 37 47 44 22 38 2 39 20 52 8 6 46 35 4 16 23 49 26 32 37 36 52 27 7 43 36 47 53 42 50 13 47 18 1 0 9 48 29 22 45 37 40 39 25 14 53 35 2 44 36 33 25 38 48 38 45 30 45 26 34 42 46 1 8 36 22 24 23 52 37 47 17 44 21 22 0 12 14 19 51 47 39 19 11 5 5 22 2 3 25 24 22 40 45 13 34 50 47 5 23 32 34 17 33 33 33 53 12 37 5 54 25 18 1 37 35 42 4 52 15 50 54 41 43 30 31 25 30 11 36 39 25 54 43 13 20 36 18 1 52 1 43 28 12 4 43 0 1 51 51 48 35 11 45 28 24 3 27 4 35 17 13 45 13 13 18 26 43 37 49 45 17 48 0 6 36 23 52 43 38 17 42 9 46 22 14 9 22 54 10 55 25 51 42 31 52 4 13 49 37 4 46 23 9 35 4 20 34 10 22 15 17 12 35 55 32 43 25 34 20 33 52 25 49 49 18 14 46 53 29 49 34 33 17 39 14 32 30 53 13 45 7 27 11 45 28 44 42 43 30 44 50 43 1 35 1 19 55 26 33 47 10 3 2 53 1 22 48 16 15 49 22 16 41 0 18 2 15 14 27 36 12 42 49 28 41 13 52 49 55 2 31 50 44 15 22 30 47 52 46 20 47 26 28 44 2 21 32 5 26 29 35 16 44 34 15 44 3 22 7 52 43 15 47 22 10 44 29 30 52 32 31 18 54 21 47 31 26 52 13 20 53 42 51 37 38 44 15 43 1 22 4 2 18 24 50 19 53 3 23 11 13 19 22 52 44 29 15 50 35 50 7 49 2 44 34 29 50 41 54 33 33 30 26 20 14 30 14 9 37 35 53 39 53 52 24 33 0 8 13 5 35 49 8 50 32 12 16 22 48 33 6 22 36 38 1 3 13 9 54 1 34 37 30 32 19 4 47 0 36 30 40 25 12 41 23 49 30 10 54 2 7 19 6 27 34 5 42 13 40 48 23 17 4 16 26 0 38 50 51 51 46 24 48 12 4 33 5 5 13 21 27 40 0 39 46 38 18 4 36 44 7 3 3 26 26 13 17 22 15 39 34 9 55 54 38 8 44 2 41 46 13 14 7 23 52 23 55 32 21 10 15 54 34 51 49 37 46 20 44 10 38 19 22 18 39 23 41 4 43 52 27 28 6 4 51 33 8 25 0 18 4 24 44 5 33 8 25 16 6 36 43 44 19 29 22 6 5 12 25 55 35 46 36 31 15 40 21 53 47 5 49 18 45 54 2 16 51 25 4 53 19 38 12 36 46 46 19 37 51 20 31 51 26 32 26 23 18 10 8 11 48 12 3 34 48 27 33 38 49 15 33 2 21 1 17 18 54 21 43 23 47 0 42 47 41 19 16 28 13 49 1 27 26 21 53 1 15 32 25 41 11 50 40 9 3 38 17 14 12 19 49 36 34 23 10 51 24 7 3 30 41 13 42 53 6 10 31 22 16 20 35 40 49 9 34 32 54 4 44 8 24 15 18 4 28 26 47 46 23 11 29 45 13 31 34 2 52 32 18 35 37 8 23 51 35 4 13 1 31 28 19 24 50 10 32 32 4 9 10 10 6 48 37 2 35 31 33 16 20 49 45 55 28 27 3 26 0 4 4 11 28 45 37 54 10 11 42 14 36 35 34 46 44 37 19 51 49 4 0 32 5 29 32 2 22 30 9 13 26 33 12 30 6 17 51 3 7 27 32 7 26 25 32 3 42 51 16 49 41 23 38 51 25 19 27 4 2 16 32 20 47 34 47 42 28 5 3 45 27 2 27 4 39 26 3 47 8 42 27 37 9 7 3 23 6 36 31 53 10 18 48 23 0 8 12 23 16 3 23 37 52 31 26 19 19 39 51 35 54 41 4 53 26 53 8 37 5 24 51 5 12 12 10 39 36 50 36 29 8 3 23 20 35 35 13 54 14 39 8 31 20 25 12 35 35 1 44 6 38 30 48 4 33 13 37 2 37 17 45 28 13 20 25 49 23 29 21 52 31 11 11 4 1 25 18 14 38 42 15 25 0 46 45 34 33 22 34 41 17 37 26 28 31 15 23 51 10 22 41 36 40 51 11 16 46 42 6 37 25 41 42 53 5 42 18 23 28 30 31 29 25 53 32 54 45 52 9 4 26 46 1 8 39 6 48 45 27 19 9 50 37 53 44 36 43 23 15 4 17 30 6 52 13 49 49 48 49 10 45 43 17 44 29 39 45 28 51 41 32 53 17 28 50 31 53 53 3 55 37 31 2 21 55 40 53 10 52 11 9 17 21 24 37 24 14 33 42 38 3 38 29 47 41 35 8 54 54 32 21 10 11 17 45 36 8 23 49 16 49 40 22 10 24 18 22 3 3 54 45 37 10 50 98 97 3 97 1 73 82 54 104 82 103 96 47 51 43 9 100 102 11 28 104 1 57 67 2 72 5 64 29 90 25 49 46 27 59 11 64 60 25 76 49 76 76 62 70 73 41 56 92 9 66 47 7 61 55 3 84 74 53 63 45 13 63 58 28 44 60 23 78 59 9 54 25 35 19 0 32 63 90 12 7 50 54 88 47 104 16 50 31 0 97 77 92 36 45 59 37 86 52 97 17 40 62 86 45 22 39 83 53 23 61 61 79 33 58 19 20 62 87 82 5 13 75 52 19 63 85 42 39 19 55 73 35 51 30 36 84 85 35 37 83 52 98 72 0 28 23 79 42 93 74 57 24 22 16 20 17 54 65 62 91 36 54 83 62 92 81 51 2 23 51 92 86 100 11 84 74 100 98 72 54 78 77 21 91 42 13 87 97 65 47 37 92 72 9 32 2 70 38 61 53 35 28 33 69 101 12 104 34 73 62 90 16 8 41 70 76 41 56 27 100 12 60 79 41 42 89 88 33 46 0 42 33 86 86 42 42 66 66 26 20 71 11 92 29 35 22 87 26 71 73 6 51 99 6 58 13 55 81 97 8 53 53 86 48 0 97 48 66 87 8 19 37 53 0 9 99 92 23 31 86 50 96 54 82 86 80 22 52 63 94 83 57 19 36 27 37 103 29 73 95 11 72 18 71 99 55 67 76 69 45 47 28 99 22 64 62 36 32 3 66 11 91 46 78 31 80 92 58 76 15 14 42 94 46 40 70 19 80 44 104 55 39 36 43 66 25 19 56 69 99 10 63 39 8 75 48 60 85 68 6 88 73 32 12 19 95 75 74 36 54 94 3 99 48 77 78 21 52 84 103 76 76 17 103 17 71 99 16 36 27 38 85 69 82 79 79 95 75 92 85 27 30 68 63 37 97 26 58 92 28 84 96 26 55 75 23 25 69 43 29 82 69 38 42 39 5 58 81 66 104 12 79 42 39 73 48 66 56 27 89 61 58 23 31 82 102 102 58 10 71 17 72 92 21 95 30 84 78 78 41 76 64 77 15 21 95 88 97 67 0 87 29 12 101 88 75 48 36 12 85 98 15 92 28 23 96 94 47 68 2 96 61 27 45 53 29 75 53 84 23 98 67 87 41 8 5 18 46 34 70 79 88 61 20 13 49 22 58 22 90 25 78 60 11 12 84 8 29 74 101 89 21 77 69 75 52 65 7 65 60 5 84 48 95 86 75 6 67 13 65 13 9 74 60 84 39 97 95 104 86 78 39 18 55 16 99 3 48 79 104 17 103 17 41 57 31 0 50 75 86 75 54 104 59 101 81 58 62 97 78 27 59 27 81 61 75 97 11 66 18 31 58 62 23 86 68 100 102 51 91 84 76 77 9 66 34 66 50 62 80 29 104 88 81 16 15 77 78 54 54 48 2 72 22 53 78 9 73 58 61 4 104 92 98 66 14 82 39 6 63 22 59 89 5 38 58 38 89 104 68 41 36 13 38 18 18 26 51 65 47 87 48 56 91 12 70 50 23 5 19 47 73 75 53 25 32 17 72 41 28 48 104 48 54 101 9 90 57 75 38 102 32 4 104 25 8 51 102 24 57 49 25 61 17 0 81 79 52 52 78 63 43 102 21 62 57 104 2 42 93 91 5 24 85 22 94 48 15 82 69 60 26 11 71 17 9 65 38 57 43 17 2 6 8 19 52 21 0 9 59 36 87 18 78 50 88 7 2 13 13 52 30 91 98 60 29 58 31 17 102 47 53 94 63 59 95 49 81 72 92 91 6 0 54 3 62 45 29 19 78 84 2 94 6 31 23 39 73 93 47 84 2 5 104 2 25 72 3 99 64 4 7 64 55 27 97 32 48 48 85 95 30 17 49 92 5 76 30 86 31 3 97 30 86 70 92 77 58 77 68 40 44 7 31 42 62 93 92 3 97 99 66 11 49 21 91 23 102 98 23 69 23 66 74 51 34 50 73 98 93 83 39 54 42 37 98 6 92 51 82 61 33 85 87 63 12 98 43 49 54 31 81 86 35 4 78 81 22 24 4 19 23 68 102 69 50 7 3 23 55 33 93 35 79 70 34 103 61 12 0 91 81 97 47 63 32 44 71 27 91 71 104 0 38 102 58 99 22 29 64 24 64 29 13 38 6 18 58 53 14 10 40 27 91 74 59 32 47 66 79 104 70 0 65 44 101 97 30 22 15 85 20 12 93 14 34 43 91 44 103 9 68 12 90 54 60 43 0 90 99 35 20 58 54 40 62 37 29 71 87 14 29 27 24 74 83 53 96 3 43 45 63 64 79 6 70 18 48 37 69 100 67 94 78 35 15 70 39 56 33 3 90 102 62 76 83 68 62 61 13 61 95 100 31 53 99 78 80 36 69 77 96 6 10 43 8 70 97 55 11 33 2 62 69 96 81 46 93 23 36 38 1 17 11 38 58 16 46 49 82 3 37 47 15 43 79 87 63 41 18 16 80 89 82 63 24 89 19 18 1 57 71 54 16 39 71 104 86 55 18 58 9 4 30 22 37 99 72 77 35 11 92 78 4 100 6 16 38 38 2 29 76 47 25 74 17 0 92 83 4 39 78 87 91 88 97 34 28 38 92 61 22 36 67 16 48 40 88 15 64 83 10 27 0 53 13 12 26 21 90 48 17 23 65 3 14 74 71 10 47 7 88 35 79 31 4 126 89 38 144 1 105 103 49 41 6 44 92 115 104 91 134 35 139 18 107 43 28 98 152 75 60 120 32 15 121 138 13 22 79 151 50 52 34 77 10 91 120 98 121 0 110 79 46 17 99 78 105 121 86 127 12 143 114 27 1 82 143 41 10 14 88 48 89 105 81 60 5 12 59 21 117 32 93 68 45 5 17 13 133 106 43 145 143 146 74 58 82 110 4 145 132 25 96 108 153 121 3 9 80 133 32 34 9 30 104 153 64 144 152 22 41 58 67 25 30 115 133 86 145 35 57 109 11 109 16 70 45 73 40 119 89 34 90 60 100 47 56 148 57 51 106 32 117 55 91 71 18 53 11 51 94 152 80 82 79 39 41 17 104 18 5 117 151 107 121 89 21 153 150 73 61 30 99 72 93 33 90 110 3 85 111 60 56 120 110 84 101 85 47 48 16 118 4 28 37 91 108 94 24 124 73 65 39 134 70 149 20 41 118 28 152 0 119 7 99 110 43 123 53 56 64 18 37 25 4 123 153 38 94 53 148 0 115 134 9 107 107 61 105 48 113 15 126 114 120 109 143 124 98 80 146 97 89 102 20 89 105 106 34 123 51 136 37 55 20 2 1 98 22 83 35 44 29 2 69 120 10 95 113 59 8 142 21 114 51 51 104 123 111 109 95 89 109 64 114 116 9 66 107 104 21 58 120 32 46 135 85 121 86 135 153 102 141 48 118 68 5 148 60 137 85 39 64 84 113 120 61 115 7 2 30 26 0 1 58 62 81 115 20 91 117 6 74 121 133 94 89 142 89 39 128 67 44 45 29 131 1 68 1 68 136 10 81 18 38 116 76 141 31 41 110 71 145 113 32 90 128 132 10 149 106 150 90 20 77 84 129 7 139 87 153 3 67 63 101 15 25 58 128 44 115 8 24 134 24 2 62 125 67 135 100 87 2 49 42 121 67 137 26 79 84 20 123 61 40 96 102 16 4 21 80 150 132 68 9 73 133 128 143 110 89 126 42 47 100 24 22 43 132 52 86 2 75 33 78 148 122 40 26 113 73 112 50 18 48 114 53 147 71 53 137 131 95 2 66 32 2 95 73 128 55 75 45 113 36 112 98 65 53 128 142 91 23 45 69 61 27 65 11 153 56 2 32 137 127 84 50 40 115 135 58 55 9 107 91 101 43 64 113 124 18 150 28 106 9 99 109 26 61 109 127 42 117 113 38 30 51 99 78 15 5 88 61 107 52 129 32 87 46 80 23 67 30 16 154 131 95 67 86 49 154 55 141 15 125 99 0 68 148 46 9 144 42 153 46 115 41 27 129 41 24 20 143 22 114 63 73 14 26 31 109 66 43 144 124 25 9 25 137 128 1 133 57 29 4 43 77 86 61 51 10 25 74 25 135 9 120 30 46 9 15 111 132 26 97 15 72 28 37 116 148 66 9 128 93 108 100 70 66 73 143 103 73 133 76 98 105 98 7 116 136 27 83 1 119 117 111 141 3 9 72 115 46 37 151 134 1 111 134 119 117 145 91 139 49 153 90 57 128 124 22 111 116 105 31 55 4 11 107 151 77 49 127 108 67 119 79 61 92 104 60 114 59 16 119 49 64 55 116 139 103 98 24 106 150 6 62 20 130 83 90 69 106 138 89 72 15 3 74 120 14 98 79 145 5 4 114 55 140 123 53 150 22 43 131 94 54 139 0 79 132 133 140 36 75 78 60 144 74 18 153 117 26 37 79 63 135 74 38 63 40 116 111 30 41 32 134 153 125 80 76 25 86 39 7 3 144 77 45 131 59 104 6 30 95 120 35 64 77 114 51 96 42 132 61 11 70 93 22 14 33 88 76 62 131 131 44 35 91 125 15 123 8 125 44 55 88 15 111 110 50 88 15 15 138 148 42 49 55 20 14 145 148 82 8 154 71 42 150 5 150 124 63 71 56 26 75 65 103 14 90 77 1 133 148 77 89 17 38 80 12 122 122 109 86 73 149 57 28 135 23 121 45 35 0 115 32 75 74 117 141 68 128 127 68 63 120 70 143 151 121 111 50 71 128 80 10 13 34 64 154 137 145 88 19 38 66 65 20 124 25 71 96 37 129 154 83 141 141 144 70 66 51 2 40 54 7 73 104 72 61 131 23 8 144 38 55 35 69 113 139 11 84 63 6 58 86 29 101 148 2 101 130 21 50 120 38 149 154 94 46 80 130 138 46 39 1 66 66 86 55 20 46 149 138 96 119 54 21 35 148 73 123 110 102 149 120 32 79 140 42 20 122 115 75 28 115 66 145 134 11 63 12 28 119 97 88 136 47 74 47 28 133 103 40 86 37 96 74 119 75 139 60 60 48 38 6 97 32 9 23 14 122 57 107 105 57 84 94 47 76 74 25 61 65 103 139 120 99 28 0 61 72 150 112 15 93 23 32 92 40 79 121 60 30 37 102 73 153 12 144 31 110 103 123 40 46 76 102 144 66 116 141 11 83 129 19 21 74 122 10 79 74 136 67 57 99 127 35 11 115 143 21 2 136 119 74 35 123 12 126 144 114 129 83 127 8 115 53 18 143 11 133 37 105 114 29 37 124 111 128 68 61 10 18 147 96 141 130 92 133 73 40 131 30 144 124 85 27 5 1 67 36 86 101 111 145 154 66 53 140 84 135 0 50 63 65 88 141 70 144 142 8 127 67 15 154 58 63 30 78 24 124 33 134 198 191 56 128 14 86 17 77 87 0 23 98 113 128 162 5 128 152 49 171 6 149 21 63 175 168 200 191 33 30 9 56 172 52 82 86 16 108 33 160 116 127 129 129 196 8 160 200 39 5 85 84 199 69 140 107 50 158 25 175 195 75 189 167 85 168 44 55 77 104 173 68 175 49 49 202 193 53 130 80 159 90 124 203 2 199 96 167 135 194 93 182 163 4 158 115 70 149 171 89 28 58 82 17 176 89 22 32 133 198 45 88 201 107 63 99 177 82 52 32 174 196 65 75 61 51 10 52 130 195 0 204 201 35 94 187 60 68 42 116 94 62 196 136 145 167 172 94 141 69 37 117 5 184 96 89 93 137 192 96 160 97 120 132 45 25 73 29 115 77 158 17 103 168 20 150 176 183 158 17 4 121 20 198 81 53 96 11 144 62 133 74 20 89 115 115 95 131 192 26 107 147 173 189 204 175 200 66 37 69 65 181 98 88 45 32 177 3 203 100 4 20 121 31 186 175 176 47 178 111 94 93 85 107 150 14 45 169 91 99 84 118 168 201 90 173 96 100 126 171 136 164 140 196 182 195 74 154 11 162 71 11 105 119 192 91 79 204 12 51 76 113 120 47 179 33 38 93 196 147 144 148 47 182 167 145 176 17 17 35 61 138 148 102 87 10 127 74 37 34 194 88 107 107 58 156 116 38 52 165 77 137 204 44 15 18 172 87 176 157 13 65 82 58 12 198 4 57 32 196 201 66 14 186 108 203 109 135 116 20 15 143 13 140 171 40 34 81 115 198 195 55 186 162 87 204 67 134 110 152 14 27 16 8 109 2 43 155 184 149 6 95 33 115 190 109 19 113 163 195 143 26 116 157 155 29 191 35 87 107 112 169 181 92 113 174 140 0 88 106 82 34 110 88 193 76 186 40 21 5 174 143 150 196 139 100 183 1 183 29 33 23 138 53 23 33 92 121 125 113 157 4 187 167 96 136 157 122 201 112 115 45 172 7 143 88 193 111 156 132 83 12 149 55 82 44 88 76 18 121 67 195 30 188 25 13 175 196 42 16 64 172 195 14 83 177 11 31 50 88 162 39 10 106 189 47 22 81 102 140 118 97 81 153 45 15 183 95 123 82 155 32 162 151 197 107 29 77 106 60 31 45 194 63 203 190 161 39 103 47 135 17 168 1 168 20 137 188 188 88 133 150 105 178 101 90 186 13 185 119 174 163 160 7 198 65 178 76 19 87 148 9 116 6 34 154 170 118 76 120 39 145 139 139 88 117 109 180 160 140 6 126 155 79 58 44 163 80 157 76 180 172 144 111 179 176 153 24 119 109 14 96 114 183 172 51 90 6 121 11 118 41 62 123 204 40 35 31 1 48 80 55 46 183 163 1 14 122 133 191 60 117 113 98 141 59 149 56 98 19 172 173 89 33 59 129 192 202 104 168 175 185 151 46 170 106 79 17 130 155 191 144 23 187 100 89 118 76 115 114 129 18 103 40 100 119 137 158 135 155 113 82 121 157 151 204 192 184 10 33 72 145 186 12 51 179 148 151 182 19 174 6 104 9 40 53 178 38 17 45 136 61 122 93 126 118 29 112 48 93 81 109 145 107 110 127 204 37 204 63 90 132 181 61 70 66 43 158 82 177 26 1 145 131 198 163 32 88 164 87 130 193 187 2 65 123 10 197 114 4 13 198 10 144 15 115 183 138 111 203 39 11 104 55 93 122 178 18 127 119 171 2 58 165 198 201 100 10 97 133 183 202 119 55 139 130 161 76 110 195 17 155 108 203 182 29 131 47 112 22 78 140 175 102 20 60 55 151 32 92 196 45 105 62 109 203 28 32 70 180 83 96 185 26 73 62 150 117 155 48 54 95 136 4 10 43 9 54 21 194 156 192 152 102 77 88 65 164 13 167 68 151 66 53 195 152 161 128 159 130 173 143 68 39 142 119 193 157 180 29 17 32 157 165 182 199 137 161 30 118 85 40 203 153 149 138 43 15 157 158 111 142 81 133 161 79 204 108 130 60 115 169 147 106 155 78 147 20 165 175 70 19 200 117 168 168 134 126 177 146 113 178 171 160 26 153 62 136 159 117 6 71 60 156 112 140 70 204 9 162 163 189 5 178 110 145 198 3 0 126 165 189 188 61 53 186 137 9 139 187 82 43 170 0 181 6 27 45 53 171 19 63 185 105 118 128 7 12 0 182 194 61 199 83 55 14 74 9 182 78 103 79 46 6 33 160 11 133 159 119 160 20 13 104 90 19 40 62 49 55 61 61 14 79 97 78 108 149 168 126 83 142 195 112 89 81 164 4 45 7 23 27 133 68 20 155 68 184 66 87 158 170 4 76 174 140 65 134 159 98 52 83 157 173 45 90 80 17 95 5 161 15 134 56 122 155 92 3 185 88 155 148 144 17 189 155 111 128 110 49 17 153 81 160 183 195 142 35 119 70 64 18 32 13 197 161 179 97 179 93 75 56 67 27 164 179 19 47 128 11 9 41 107 124 130 129 66 156 69 43 7 55 200 161 8 46 94 179 11 185 174 201 8 98 153 39 199 119 39 175 164 120 194 73 32 104 158 25 167 21 156 157 80 140 108 72 107 151 157 54 1 64 103 36 167 167 185 128 167 121 42 73 47 160 12 179 181 113 116 115 41 12 203 193 137 148 168 2 60 109 14 22 27 33 156 92 32 107 87 47 38 222 190 71 162 47 112 106 47 204 107 180 1 151 66 16 182 236 0 182 75 16 250 139 46 55 58 54 109 102 251 94 30 238 187 118 139 207 56 230 73 180 104 14 47 100 214 117 102 220 79 29 5 219 100 186 101 34 165 229 47 40 24 121 200 28 205 168 31 212 162 20 133 18 121 87 6 191 19 98 127 17 75 146 212 157 202 92 15 95 151 125 70 200 251 15 22 50 44 219 4 236 61 232 37 189 45 132 79 120 176 208 53 18 250 32 65 221 47 14 110 69 177 58 27 175 143 1 249 116 176 162 35 126 250 172 237 9 54 156 146 14 199 140 63 91 11 97 149 221 243 194 203 30 56 236 216 249 162 8 238 152 88 34 168 160 49 124 41 180 109 59 158 183 217 58 86 220 75 6 96 15 226 66 113 164 149 249 239 117 101 176 240 199 69 22 7 161 28 73 165 121 75 14 133 222 202 77 186 249 47 83 245 150 41 165 176 138 84 220 148 39 109 88 127 162 62 75 113 1 89 87 180 2 238 218 158 159 223 16 173 140 206 33 109 81 85 220 219 116 38 160 63 69 179 54 32 183 45 37 99 114 234 192 43 236 157 246 2 77 71 33 246 95 102 92 33 204 221 170 203 252 225 103 172 187 22 79 92 143 30 152 24 222 55 112 99 77 59 78 143 236 13 241 223 51 86 5 175 202 25 164 219 175 125 103 91 41 213 128 63 163 68 50 18 100 9 168 58 170 85 224 104 182 40 71 57 58 33 46 126 194 69 56 234 14 24 232 143 99 152 121 218 224 245 14 149 209 143 125 146 127 25 191 115 26 237 61 83 158 238 1 177 223 2 33 220 141 241 72 210 112 104 62 194 43 44 95 172 45 91 88 208 59 89 148 217 55 25 190 134 124 141 58 55 126 82 243 27 150 238 120 240 12 176 38 16 87 6 108 36 172 227 244 95 192 14 154 11 228 202 143 173 97 233 42 61 178 33 23 14 6 153 126 121 164 195 220 95 175 67 16 140 190 4 228 44 103 209 31 184 171 6 196 165 211 27 180 181 194 185 197 40 45 30 242 192 223 216 98 81 114 76 183 187 4 248 141 40 248 226 6 88 200 177 71 210 203 214 81 89 169 76 13 92 81 77 4 96 148 134 138 11 81 42 101 74 79 102 37 201 181 37 200 37 47 153 87 154 178 120 14 35 149 236 82 160 171 155 241 49 204 76 125 52 241 9 175 150 43 208 187 137 80 158 111 28 2 108 4 104 107 130 137 81 104 21 201 242 105 35 19 86 201 137 182 249 110 189 65 191 83 37 176 102 239 122 156 128 29 190 180 171 200 150 121 230 184 33 0 82 170 159 79 51 127 6 133 14 86 60 216 172 55 48 183 96 48 8 1 87 141 8 35 212 147 253 37 45 82 80 83 193 132 114 165 239 146 233 141 162 170 158 199 6 125 36 218 126 30 57 228 107 148 161 219 219 134 163 231 172 178 71 117 200 0 33 38 119 97 194 199 242 224 163 243 184 124 152 118 201 191 39 34 202 39 204 66 59 82 24 179 182 12 142 111 116 27 83 117 251 122 129 127 58 99 44 217 118 67 7 60 208 9 10 43 72 238 45 11 114 27 142 14 220 70 20 153 83 70 86 79 239 161 251 212 57 144 190 5 51 16 206 48 164 103 193 0 249 202 72 64 3 248 223 12 246 250 38 36 120 102 156 126 140 78 235 185 180 185 133 25 169 215 176 42 90 56 82 185 184 202 139 64 243 247 7 218 32 120 122 18 252 212 56 101 77 43 237 120 118 38 78 203 85 195 212 216 140 206 96 131 36 180 196 60 207 152 37 188 183 66 41 56 123 94 228 121 114 24 4 43 73 142 10 232 248 48 68 187 215 115 57 28 156 3 41 57 165 204 124 132 96 14 45 68 20 195 252 194 129 42 19 66 253 162 206 76 152 173 110 166 222 223 74 86 74 98 206 19 136 126 246 153 2 70 105 178 234 59 4 224 64 39 228 0 107 129 88 106 253 1 165 196 70 67 39 155 23 179 48 117 14 138 30 249 198 138 33 87 166 108 29 130 61 12 39 127 231 68 130 200 182 161 159 146 184 192 134 100 175 141 47 99 80 189 36 180 158 44 124 216 115 116 145 238 70 6 235 41 208 243 80 129 146 61 118 222 100 239 67 66 134 185 141 50 112 95 90 237 187 177 8 50 1 100 77 126 113 122 38 190 7 13 102 67 40 52 170 207 248 91 92 87 210 53 115 11 14 165 187 223 150 213 52 177 130 194 99 158 149 129 177 83 110 131 144 79 79 26 28 221 173 130 116 90 15 177 107 109 210 62 98 212 106 8 85 249 176 8 135 80 207 100 74 79 241 188 187 124 38 184 19 86 59 215 210 152 119 148 229 169 102 71 13 45 180 233 163 2 70 159 146 42 128 37 19 237 250 19 121 181 140 140 184 216 96 66 225 238 16 119 53 229 249 213 34 222 58 210 187 21 130 235 2 83 74 244 16 62 124 84 0 248 169 68 155 219 93 29 176 82 157 39 18 156 63 241 168 112 1 203 30 81 169 193 245 138 22 189 42 38 234 193 41 216 229 198 47 166 248 56 114 201 43 166 150 153 235 23 76 127 212 148 47 169 4 105 51 32 17 153 176 91 190 18 242 249 109 170 200 86 251 212 253 111 7 42 66 129 