P2
#imagem2.pgm
100 100
255
131 24 138 20 136 233 189 198 203 77 69 84 240 174 244 23 127 194 180 28 218 178 30 110 115 124 73 151 59 150 224 100 94 212 120 233 45 139 32 197 91 247 57 167 109 218 136 17 108 102 137 92 221 93 6 253 243 119 233 6 2 4 79 240 55 210 221 151 135 81 87 134 229 245 110 117 184 220 218 16 140 177 169 250 7 208 215 18 31 170 30 245 139 107 15 196 119 219 98 39 124 130 139 145 207 16 142 198 185 252 19 155 71 106 189 253 66 82 184 53 97 223 145 106 190 21 75 104 135 183 175 160 246 104 227 111 131 16 62 163 88 129 91 59 5 91 108 110 117 44 209 239 32 220 234 112 131 73 41 101 205 46 107 10 220 73 136 167 103 189 40 18 125 181 217 118 46 74 95 84 136 167 75 199 197 106 208 12 194 78 209 65 179 7 62 109 22 110 161 193 229 222 244 30 16 222 182 215 42 0 62 183 98 9 78 70 182 81 235 72 99 109 108 135 160 12 210 210 139 31 87 70 100 61 74 204 249 69 25 227 97 69 176 160 237 154 1 242 92 89 228 43 78 238 34 188 252 3 204 64 37 164 210 189 76 160 208 38 32 50 43 36 60 224 93 21 16 164 141 86 31 74 99 189 108 25 26 106 46 181 215 192 203 68 57 174 4 208 49 51 109 236 20 33 33 155 238 33 179 109 26 247 104 235 15 7 163 53 125 24 160 234 153 89 101 72 180 161 246 149 19 251 201 189 251 98 121 60 11 201 190 62 207 95 157 5 145 16 220 140 114 79 185 106 186 19 220 248 109 31 137 182 31 135 26 235 8 112 173 140 91 23 26 95 212 21 40 96 144 225 0 100 34 150 225 252 227 246 22 156 137 175 37 253 252 222 74 191 101 210 35 83 135 18 173 24 82 161 111 196 181 128 245 6 181 117 128 106 188 11 252 124 51 218 50 48 82 8 63 129 55 16 69 89 54 194 96 177 113 140 220 249 168 247 165 186 82 116 254 122 236 89 118 224 145 39 24 24 203 14 227 121 169 179 122 101 17 48 28 113 88 92 213 198 16 78 246 200 33 28 196 245 28 232 109 15 203 30 64 125 13 247 28 239 224 66 41 65 192 99 199 162 48 156 196 245 150 139 210 119 75 244 56 162 243 193 199 82 10 71 16 39 192 203 212 42 7 69 188 179 234 99 74 138 32 209 16 76 225 184 32 16 248 133 195 75 26 235 110 241 118 43 241 221 141 147 242 115 68 68 154 132 55 57 142 113 81 133 33 148 154 220 200 219 79 85 206 182 56 110 72 52 54 81 76 105 28 86 94 18 191 200 43 124 81 236 122 161 234 63 95 148 104 0 177 32 121 238 191 172 246 83 63 98 115 65 135 145 20 28 0 79 162 88 215 98 221 132 245 97 20 136 50 22 244 43 197 39 158 216 255 245 252 161 58 197 84 132 12 30 29 237 192 113 18 125 6 0 134 10 233 248 247 231 2 224 229 101 235 55 228 153 247 89 241 96 32 163 2 161 65 215 225 210 134 194 57 190 32 28 241 133 61 175 186 228 55 188 228 182 11 154 118 187 14 160 125 153 219 69 164 32 144 134 5 210 58 136 63 163 141 127 201 253 217 206 134 7 57 112 153 39 14 150 122 198 171 145 73 83 82 243 99 138 96 241 52 246 196 12 76 180 181 241 180 123 165 157 130 217 112 196 171 191 218 116 25 64 56 246 253 150 109 245 103 102 24 225 20 69 12 150 134 122 1 57 90 5 137 99 215 225 69 130 195 135 88 124 122 179 28 149 65 106 20 146 215 60 34 30 77 199 250 110 24 124 215 33 101 166 109 106 172 167 30 112 136 133 112 245 198 166 191 54 187 216 47 19 219 149 229 112 136 132 119 219 40 66 160 111 122 99 57 248 42 180 100 88 163 195 11 41 36 162 137 163 22 231 166 192 157 247 201 159 109 133 105 38 223 85 197 236 67 70 213 86 120 143 128 0 187 73 15 94 189 46 226 163 248 160 97 225 66 237 54 114 163 209 186 152 100 60 172 96 104 86 41 204 192 192 216 48 121 29 102 221 184 210 50 253 10 9 73 190 245 252 148 179 211 112 80 119 224 127 191 147 145 155 29 161 39 208 214 178 133 73 246 238 62 22 225 122 243 45 68 159 220 174 75 40 164 107 21 11 122 167 101 76 101 30 154 31 215 70 225 77 134 213 169 216 119 131 87 226 91 17 59 203 31 138 195 154 191 201 239 158 91 59 5 85 140 230 134 140 248 170 96 200 36 199 101 229 138 160 252 253 236 191 23 139 231 24 101 208 203 146 200 118 170 195 9 116 175 251 203 49 177 133 189 236 8 41 20 91 160 245 57 146 76 62 190 39 92 225 151 148 113 206 135 220 144 200 216 114 118 102 79 86 43 94 95 129 218 2 157 131 224 11 116 107 35 150 26 231 165 108 194 172 89 134 20 24 53 209 218 22 136 46 252 67 142 189 174 79 65 91 232 165 115 105 22 78 26 208 18 18 235 65 79 225 42 194 87 114 192 102 119 42 142 91 184 63 1 42 18 29 230 59 221 9 128 152 136 4 216 242 141 242 85 233 164 251 140 136 56 50 89 15 23 116 47 246 109 147 172 46 243 180 113 170 100 246 48 30 49 85 6 7 117 205 12 235 43 194 41 226 159 159 42 85 34 190 20 6 2 136 184 80 185 221 137 177 101 182 171 133 120 8 76 20 177 236 55 207 75 254 166 215 116 2 88 191 0 206 228 147 95 100 77 25 204 94 214 86 200 143 24 84 199 231 81 35 41 151 255 30 107 118 174 111 159 163 14 214 25 108 72 166 108 111 146 16 149 255 2 163 117 202 159 20 133 184 190 59 197 22 140 95 245 243 231 179 8 202 114 32 214 98 232 69 17 243 176 189 122 138 178 160 84 174 106 76 25 68 58 101 109 176 5 26 80 61 249 170 151 191 172 39 157 119 107 123 54 54 207 168 228 197 144 84 78 133 158 132 237 83 110 168 9 174 146 216 228 28 141 93 53 201 229 115 215 114 122 77 195 129 21 90 60 122 68 199 73 149 102 69 104 173 2 12 129 88 93 31 25 88 75 210 200 50 69 138 237 28 188 197 160 28 173 90 232 111 118 1 46 40 232 21 242 25 157 153 189 246 139 122 87 184 218 19 57 64 243 246 69 61 218 234 181 79 189 48 82 109 205 11 230 132 76 127 243 96 231 88 165 208 71 110 6 5 227 40 113 60 24 63 73 157 123 196 234 98 110 101 224 59 241 236 88 241 187 8 211 74 138 80 34 46 183 133 142 7 13 23 87 110 219 235 96 3 72 92 40 156 231 128 252 163 139 172 107 185 93 58 251 159 43 137 26 87 3 70 87 134 1 234 210 29 101 132 241 56 232 185 85 71 81 9 13 107 67 84 9 35 89 156 209 39 117 12 119 148 84 57 201 74 102 169 204 146 221 146 102 5 4 227 91 169 211 136 123 92 192 234 25 118 215 182 190 170 13 224 31 45 210 231 77 26 229 90 44 22 108 155 38 48 68 227 32 10 150 134 173 62 171 121 130 251 1 17 43 239 158 13 252 106 164 215 73 192 38 7 218 239 58 41 153 129 79 192 142 180 193 139 13 217 171 6 46 250 253 52 126 191 206 156 244 146 243 145 39 2 208 183 189 101 110 195 39 194 206 130 140 238 125 29 2 244 105 155 4 186 243 167 33 226 69 148 241 239 230 158 77 169 139 115 191 194 49 242 56 185 104 50 1 255 242 198 244 89 140 63 236 133 12 243 122 32 172 253 218 199 166 133 37 125 1 66 199 76 170 60 52 47 198 215 215 48 71 13 75 206 189 251 206 161 111 159 243 65 171 224 151 99 90 206 21 69 215 44 190 77 2 44 131 237 144 121 245 201 165 122 112 28 164 214 146 87 70 51 242 12 233 68 15 11 43 2 135 203 184 57 138 11 96 71 141 184 109 32 67 18 51 150 201 11 232 216 33 239 182 56 225 74 15 49 44 7 65 168 226 213 74 114 20 207 237 23 187 91 5 213 169 82 26 232 191 98 50 9 97 177 233 53 39 195 196 175 213 158 195 72 142 44 53 222 68 224 208 35 115 156 1 159 15 211 129 249 187 235 41 114 59 229 7 178 44 63 177 199 242 25 217 107 243 152 34 133 3 136 50 243 30 69 9 135 93 219 145 79 35 108 118 26 151 210 55 55 88 134 126 128 108 192 173 152 121 224 185 112 55 13 59 16 37 28 196 148 123 179 113 116 96 174 192 9 94 193 162 77 19 95 210 227 41 219 100 87 136 206 161 166 201 184 18 1 238 234 219 206 81 163 75 240 219 121 176 72 118 250 112 123 197 148 85 246 18 178 41 48 136 40 131 47 162 209 224 78 227 118 245 61 200 242 68 73 251 148 238 222 201 197 200 74 214 235 176 195 15 141 34 172 225 183 6 20 168 160 204 128 107 138 187 234 198 234 134 9 39 201 33 211 62 106 210 65 174 45 139 82 9 179 119 82 251 67 211 92 197 108 255 30 237 236 213 220 52 209 57 183 201 222 241 48 188 48 184 232 181 34 141 169 230 109 81 170 62 148 145 15 224 127 161 176 211 101 234 27 251 240 132 220 72 156 8 252 45 97 159 199 84 145 95 210 144 3 216 61 19 113 233 54 225 31 217 190 132 189 162 176 1 143 144 255 12 203 11 63 120 67 177 103 241 67 169 213 237 189 51 146 224 163 131 216 175 149 207 209 104 188 167 162 48 246 133 168 125 51 165 1 133 31 22 79 246 1 18 184 231 226 139 50 14 243 6 253 52 41 172 112 231 42 158 249 111 108 138 96 3 155 124 75 60 60 246 7 201 145 66 133 101 188 7 163 6 38 27 173 87 34 152 36 105 206 50 190 165 58 199 173 6 205 56 36 133 228 120 24 212 187 226 68 78 145 208 111 47 7 105 241 0 202 186 116 86 113 9 248 188 169 101 26 238 143 130 149 72 93 196 9 125 73 154 251 140 170 13 29 240 93 153 208 23 103 59 232 22 219 203 175 155 255 140 44 35 170 2 165 109 240 3 98 46 1 17 180 6 79 231 54 179 239 82 83 133 66 66 8 17 212 33 235 42 132 99 109 13 230 95 92 220 229 93 172 78 173 240 118 164 200 134 65 223 134 61 129 48 163 248 93 176 36 179 181 81 130 19 100 20 10 65 194 125 132 249 109 69 19 222 74 78 92 17 198 220 234 1 98 1 209 133 110 89 146 40 20 248 63 195 153 161 224 82 224 56 20 0 48 122 252 132 54 236 84 176 78 17 227 71 254 224 22 16 195 117 232 40 17 7 4 156 149 26 46 55 189 246 223 153 122 87 47 137 69 102 248 141 96 232 57 183 94 182 184 193 229 109 236 93 179 102 25 198 223 233 189 155 97 157 43 237 213 67 118 151 124 164 144 205 132 200 179 248 137 105 0 193 91 167 103 108 2 254 198 104 255 116 85 36 213 23 65 36 200 166 151 83 229 143 100 155 66 25 27 179 135 227 54 56 173 141 32 0 6 181 83 171 126 37 189 122 32 74 105 101 220 233 91 103 135 13 188 29 35 68 55 143 97 10 162 78 100 134 225 191 200 116 7 182 227 99 191 70 74 32 235 216 151 114 138 123 106 7 223 123 174 175 208 53 30 200 140 41 7 249 112 81 79 36 44 178 182 149 33 48 92 128 14 166 132 170 236 54 151 102 22 222 108 195 173 76 198 4 59 244 30 80 150 95 163 171 8 198 128 37 172 223 93 81 27 247 40 249 72 65 21 16 169 110 227 232 152 125 98 166 248 213 50 242 27 145 205 243 227 27 199 122 40 252 85 125 90 242 13 200 104 67 236 239 224 82 157 135 87 112 248 149 11 244 202 71 199 142 212 226 7 216 22 252 93 46 77 235 19 192 186 125 18 229 37 234 2 179 34 6 179 204 147 187 188 122 110 183 98 255 192 98 187 38 242 19 19 30 75 131 142 136 183 130 15 207 199 232 89 184 248 207 116 58 56 255 83 143 166 170 179 139 154 90 70 45 229 39 17 116 90 45 18 115 141 61 39 168 218 211 43 138 169 72 98 97 241 73 23 90 251 136 131 219 105 177 241 20 118 160 32 215 127 209 233 169 195 24 33 25 103 146 193 80 189 219 68 234 197 129 81 4 244 185 154 150 53 81 4 4 46 230 8 239 196 87 89 81 225 121 199 201 116 13 99 51 186 239 228 124 189 144 73 180 26 165 192 101 6 33 199 36 147 97 145 101 48 167 171 148 111 202 223 97 12 44 89 91 42 235 8 192 223 92 71 147 243 181 189 240 229 9 129 157 47 122 130 225 203 170 39 153 246 114 50 136 52 215 234 239 148 57 121 93 53 206 147 201 9 79 88 222 217 241 124 150 138 151 165 10 158 70 20 137 254 217 136 231 246 246 95 23 129 64 255 252 199 206 116 125 228 221 90 216 235 193 254 56 42 34 192 137 176 100 188 139 13 103 169 37 89 113 0 253 120 104 97 69 155 69 52 216 10 197 140 133 34 97 80 170 153 129 156 5 10 237 101 200 173 132 92 235 101 48 21 198 1 25 105 223 187 25 25 1 5 113 179 142 134 186 186 21 95 30 1 39 178 199 88 103 101 152 106 225 35 27 230 157 164 187 221 115 47 52 108 32 93 71 154 154 31 178 131 161 2 95 183 151 178 220 221 145 189 11 156 174 154 27 187 168 234 182 134 168 253 124 116 95 152 177 8 82 246 50 245 117 12 174 133 252 18 18 59 110 62 69 184 251 211 22 219 15 90 115 44 39 47 219 123 228 64 21 196 93 18 35 86 186 5 114 52 255 216 83 188 37 111 175 134 111 212 245 143 251 125 88 151 152 205 56 199 215 220 221 151 101 123 107 239 151 115 18 140 71 14 134 166 223 217 175 208 179 167 161 31 148 217 206 142 161 221 122 161 97 245 112 73 15 58 244 8 53 224 248 85 125 187 147 66 195 2 174 92 110 84 1 211 1 248 62 219 237 105 139 81 170 18 54 162 5 86 164 233 188 211 139 87 72 232 97 216 250 116 21 243 73 225 252 242 107 98 14 68 34 120 82 31 217 187 151 106 239 215 101 217 83 213 51 90 81 156 218 176 171 183 74 93 236 88 124 198 249 157 168 146 233 19 183 83 22 121 251 104 116 198 30 34 34 109 88 37 63 223 229 17 255 81 183 98 254 192 104 149 212 51 114 141 233 65 162 52 139 210 202 101 61 42 183 10 82 35 98 129 187 185 106 69 30 204 194 202 40 34 167 168 35 172 214 252 203 10 251 11 93 80 108 41 242 11 23 218 11 127 186 54 109 51 82 146 47 176 213 92 17 133 35 71 15 142 58 168 54 118 170 32 183 123 74 124 58 113 40 217 116 10 198 12 252 84 131 65 90 131 87 225 97 241 195 186 192 99 8 90 211 142 152 187 191 218 202 38 189 101 209 81 182 75 239 203 17 37 230 153 201 207 176 34 194 111 111 72 93 178 167 216 74 89 171 36 157 245 85 238 36 238 250 136 248 202 157 58 83 172 99 228 161 27 71 228 218 5 15 58 14 4 127 234 66 223 204 162 122 84 84 157 23 21 139 199 99 16 57 34 107 243 227 104 13 240 134 242 81 190 140 216 253 224 248 90 99 41 228 127 126 128 45 251 61 225 109 86 31 164 41 75 0 2 76 111 51 213 212 19 208 159 204 106 79 206 122 239 86 62 217 1 208 0 74 208 63 90 134 125 83 14 215 125 187 223 136 63 59 82 153 14 255 178 184 56 47 86 109 112 195 39 149 113 153 92 17 228 196 136 191 132 40 215 169 128 68 148 125 32 78 239 62 172 133 254 56 138 195 1 57 166 81 234 254 23 0 29 236 255 117 116 1 178 197 134 9 27 66 41 21 92 148 53 41 181 11 139 53 167 51 86 70 89 169 145 254 58 46 202 66 232 250 37 50 81 82 163 94 24 93 164 54 58 52 171 195 241 56 98 149 216 168 222 253 80 115 35 124 35 74 235 122 104 250 163 59 167 249 183 16 61 62 15 202 1 86 218 116 39 181 138 66 101 74 31 196 85 86 169 95 27 125 8 254 71 30 247 5 253 224 73 135 83 141 113 184 250 36 72 165 33 41 11 34 150 64 163 4 46 250 42 145 104 239 170 53 77 13 40 119 154 47 225 42 33 241 211 232 109 195 127 188 165 61 238 31 178 179 242 38 164 8 174 249 82 199 88 135 65 111 62 120 200 15 7 99 113 19 60 66 161 94 7 35 124 153 58 32 3 202 146 144 127 40 62 127 35 46 155 92 237 238 66 242 205 168 68 154 9 155 180 174 224 27 102 64 110 228 247 12 207 174 13 172 135 1 224 11 33 75 250 28 23 48 59 204 242 33 31 53 178 48 68 20 112 34 38 125 66 198 45 205 95 134 235 225 132 60 158 133 150 71 253 47 136 221 49 238 127 162 33 157 52 122 242 92 154 156 206 65 194 233 229 74 251 123 178 150 61 128 128 213 200 73 44 254 8 158 44 64 188 85 208 58 87 35 200 110 166 177 231 243 180 242 39 107 235 181 236 53 123 118 141 228 0 122 16 239 95 27 53 169 240 96 183 116 227 208 206 50 220 136 248 253 225 140 249 24 118 91 32 37 6 198 205 152 133 1 48 107 84 251 83 20 101 235 91 180 159 43 11 145 132 74 137 198 17 93 101 57 229 149 215 206 166 23 72 218 161 7 20 219 176 230 143 102 97 31 70 96 84 220 135 113 229 30 35 182 11 13 114 182 128 141 152 152 35 17 7 147 154 180 69 165 59 134 240 136 45 35 255 226 202 139 74 188 72 45 77 53 153 69 40 119 143 104 235 235 68 93 17 169 185 47 74 51 189 128 126 98 17 32 14 160 201 223 93 88 245 159 143 171 129 173 144 101 90 81 88 47 210 163 110 6 70 161 171 235 254 127 65 220 84 62 252 4 25 128 199 47 52 155 113 128 140 236 177 102 41 110 104 204 150 138 39 144 137 49 241 55 197 41 66 223 64 164 79 116 129 23 144 39 77 73 124 28 130 171 148 99 67 231 162 42 85 187 67 49 201 8 163 126 220 38 136 81 27 123 146 90 203 76 193 42 135 210 55 232 43 145 63 69 241 229 143 177 218 222 202 208 80 77 73 39 9 31 27 28 46 234 74 29 189 198 96 31 44 94 42 74 79 71 188 242 123 144 181 202 236 154 197 84 100 41 108 156 21 188 4 38 193 26 1 37 32 46 120 237 130 20 222 171 181 116 19 84 41 15 158 219 82 151 59 167 78 196 147 68 200 164 74 89 28 51 62 218 187 43 14 126 210 29 218 116 38 193 74 82 66 139 210 78 213 126 52 176 86 69 70 135 233 128 245 155 134 92 138 164 88 102 44 185 99 161 166 11 106 213 107 211 16 43 215 137 61 247 184 87 195 213 13 205 66 247 14 214 73 189 108 235 189 134 217 134 127 199 203 218 73 90 125 193 217 24 55 246 82 169 208 132 223 155 113 126 153 178 155 241 171 127 108 23 179 52 30 205 108 183 208 71 139 245 137 3 230 121 122 251 219 61 131 31 240 192 249 2 183 88 167 212 245 202 18 144 2 24 2 118 115 154 61 188 247 80 150 129 127 119 38 2 162 90 218 16 63 107 46 194 100 146 55 103 110 197 231 190 114 217 141 106 220 152 155 160 86 19 172 35 236 58 197 114 109 169 219 63 20 197 150 36 103 8 85 146 96 153 114 10 203 32 199 143 239 216 113 91 112 230 211 209 116 233 222 179 5 210 144 149 183 246 187 145 138 97 8 61 17 109 59 218 212 148 185 206 244 131 71 85 13 111 20 115 96 172 250 45 50 124 1 248 111 37 37 114 147 70 89 80 202 106 203 151 86 222 106 16 50 192 166 245 245 89 118 241 248 173 160 72 187 79 53 81 133 122 90 45 75 94 78 179 211 184 169 170 26 165 226 59 242 184 20 165 239 74 2 51 132 17 88 108 106 245 52 137 65 30 228 44 122 82 242 78 116 126 93 121 229 146 42 56 124 146 27 205 197 234 191 33 76 3 171 1 5 19 6 134 235 57 75 213 232 201 74 9 245 229 112 110 130 77 73 240 24 119 67 211 61 227 181 164 152 169 31 111 85 84 180 50 203 242 21 146 92 108 96 205 157 20 105 240 183 125 71 74 14 143 19 32 32 218 236 162 175 43 62 30 34 93 68 116 41 114 204 202 160 227 59 128 182 51 208 102 78 202 45 45 165 1 19 28 53 122 109 4 218 178 144 118 52 217 193 51 76 225 247 228 122 213 227 12 134 108 46 58 13 222 2 131 38 246 203 47 70 104 63 179 97 102 156 224 82 110 48 89 125 102 31 74 179 234 97 87 86 229 10 211 189 94 206 51 217 149 196 194 25 79 106 150 140 110 234 194 70 196 155 205 4 41 203 99 19 203 188 75 109 198 236 153 38 245 153 37 6 7 133 59 120 213 247 148 162 242 2 133 214 132 9 119 41 83 131 151 97 32 252 207 21 56 92 244 15 73 108 65 245 115 150 4 41 162 237 151 237 28 109 146 203 86 131 63 52 12 208 78 103 144 42 202 148 99 227 76 65 2 78 111 238 2 128 131 244 95 84 134 179 18 178 80 236 225 16 13 108 123 56 240 235 196 76 38 51 110 8 9 133 201 72 151 56 220 202 34 163 180 52 72 61 252 89 38 3 206 184 201 26 201 69 229 182 100 109 202 58 129 84 147 161 70 97 161 28 40 252 72 252 72 150 199 211 3 234 126 214 196 131 91 134 29 127 150 144 23 146 158 241 198 78 83 93 32 161 117 226 15 159 92 201 196 129 234 189 79 238 191 47 108 122 171 248 160 109 105 64 133 197 138 159 98 126 175 131 255 16 251 210 184 58 200 208 207 254 153 66 7 237 80 212 110 164 162 184 122 151 199 144 87 13 118 142 128 108 16 217 141 183 28 51 75 85 243 218 18 20 188 171 83 109 155 141 113 10 38 13 210 133 25 70 53 115 74 4 70 161 223 41 111 157 190 79 242 120 69 174 53 203 60 64 92 248 7 36 29 178 32 65 208 192 197 43 198 253 238 74 220 164 130 57 80 202 202 108 211 44 38 22 223 43 255 73 74 21 252 95 28 166 121 154 158 207 53 7 179 181 74 168 107 253 99 209 214 71 41 211 22 248 254 216 184 61 238 14 69 77 226 8 19 238 23 97 97 58 207 162 163 163 71 101 27 53 232 187 169 27 193 204 228 101 53 189 105 8 241 215 116 38 34 229 173 144 228 221 68 138 253 195 63 206 203 203 19 211 123 190 114 78 124 158 101 250 51 141 154 148 241 235 255 42 34 191 144 150 199 88 108 70 38 52 47 62 191 32 124 95 131 161 217 233 65 147 192 63 97 16 242 234 212 147 15 225 75 93 100 7 167 24 4 246 177 187 26 251 12 173 125 97 104 45 133 243 247 241 30 188 37 13 26 17 132 23 204 210 5 137 210 236 110 102 50 34 8 33 169 14 152 186 63 98 145 42 31 116 136 1 166 250 232 78 186 17 231 191 93 133 185 9 129 76 3 138 30 83 146 45 131 126 77 143 234 234 104 96 78 117 219 11 129 128 19 153 121 243 231 210 234 130 205 166 27 47 78 204 242 16 183 169 80 83 18 115 165 127 84 150 187 252 216 87 214 214 12 183 255 190 107 154 157 82 171 40 69 158 55 116 211 226 223 91 186 149 206 176 152 171 189 150 14 20 103 44 206 133 61 112 245 122 90 93 156 124 185 87 169 159 166 201 235 80 114 13 103 77 107 140 236 245 11 38 238 194 112 212 145 20 12 139 3 48 158 100 15 136 97 251 239 61 131 20 98 226 216 133 255 131 208 80 201 229 167 15 3 16 219 149 70 11 227 210 208 231 30 247 31 254 10 219 191 125 182 157 96 32 122 140 43 61 229 67 86 4 247 24 246 5 144 184 21 243 41 11 5 167 194 94 243 103 27 192 191 105 39 172 12 147 190 233 147 133 146 175 188 217 100 11 111 169 120 132 39 82 70 255 73 120 114 224 181 75 254 114 154 8 191 137 142 194 13 102 222 98 191 218 34 237 87 175 21 5 121 67 164 179 162 118 69 99 22 198 138 48 26 185 246 98 100 124 15 53 208 201 180 221 84 13 177 198 54 203 145 32 124 59 180 155 165 56 161 111 150 89 156 160 215 93 124 128 255 204 183 117 109 219 191 252 57 144 145 238 106 40 138 3 106 182 125 148 183 12 4 165 218 222 19 34 157 37 211 105 121 194 173 9 78 100 164 201 87 171 233 237 92 142 169 180 41 250 42 37 64 187 22 11 203 160 23 63 212 218 163 37 184 166 26 121 217 44 14 76 148 166 225 73 115 196 150 61 163 79 225 215 168 14 128 172 79 230 206 125 228 68 150 189 166 192 37 78 120 250 163 140 217 200 163 140 22 148 248 165 190 255 202 48 87 202 234 141 79 247 99 103 54 43 82 56 42 87 247 15 146 151 11 145 15 91 84 61 175 196 120 245 100 81 15 186 181 186 251 184 180 28 252 130 48 87 127 158 43 180 183 68 142 204 239 99 28 165 31 229 165 29 189 52 124 140 213 253 43 165 92 52 100 157 194 88 59 144 198 248 147 32 142 118 214 95 247 11 234 239 42 11 96 103 112 106 238 249 71 128 31 82 181 9 73 194 220 112 192 157 207 77 73 225 164 44 209 24 202 144 95 128 157 55 72 106 56 160 162 224 138 203 250 138 173 64 74 211 114 82 37 71 65 165 53 63 32 238 231 193 17 250 101 162 161 242 197 237 190 221 127 137 201 102 37 21 236 223 78 23 174 135 212 86 196 8 63 132 42 68 128 32 115 81 227 155 94 194 63 186 169 41 111 59 42 218 6 187 27 241 63 215 182 150 51 146 2 127 79 246 236 183 4 255 153 158 192 180 251 50 30 151 162 140 90 63 213 173 7 68 226 123 4 91 178 7 172 194 160 17 77 223 139 206 219 36 42 233 230 53 160 199 202 77 81 15 38 222 243 106 143 119 232 135 133 235 203 99 165 176 73 199 33 133 50 18 110 87 207 56 60 102 119 11 171 164 93 185 188 93 172 150 5 29 214 28 170 207 40 48 136 34 163 167 179 49 7 9 35 98 48 149 170 142 165 133 41 99 111 147 4 7 39 187 211 254 83 67 91 78 243 249 188 225 86 188 235 42 50 61 99 12 244 7 24 247 85 189 173 84 46 163 230 35 141 96 96 226 8 3 128 177 81 67 169 181 11 11 178 186 220 54 151 28 196 151 110 231 173 60 157 61 67 243 75 248 5 14 20 145 156 100 1 65 108 152 183 101 106 158 238 39 45 122 37 91 71 75 148 167 213 137 99 231 85 139 25 207 184 76 87 210 184 110 198 67 108 127 78 187 26 124 137 186 76 147 119 145 38 45 115 127 246 44 101 26 13 113 58 240 206 162 145 111 4 42 183 2 121 129 214 125 196 173 105 187 98 9 243 133 8 69 241 182 56 174 13 157 19 175 148 163 110 152 42 46 39 159 189 197 185 37 183 116 15 58 120 114 150 98 3 1 150 153 247 150 194 150 194 58 14 77 17 48 192 183 138 216 202 213 190 211 87 243 89 104 164 42 156 38 17 40 14 203 120 52 110 101 189 108 235 183 166 81 152 222 237 134 26 53 148 213 163 117 121 115 37 33 42 133 191 33 250 226 124 172 85 27 60 108 80 185 242 221 132 197 16 247 29 142 64 12 46 166 85 243 72 46 129 102 74 83 200 169 122 25 180 108 213 88 75 243 164 3 62 116 80 176 99 193 119 85 101 38 63 80 187 149 235 171 214 0 172 157 159 7 185 84 32 211 161 241 129 66 224 213 55 68 177 27 120 133 36 101 242 76 112 220 188 163 138 114 141 184 247 107 44 131 222 27 39 169 97 241 200 160 45 180 69 20 80 13 55 138 76 70 77 68 105 81 66 100 79 12 12 84 211 195 87 100 18 246 49 181 188 93 7 87 179 42 208 174 213 142 136 26 21 126 224 214 209 183 52 33 96 0 189 156 234 175 8 244 124 110 166 192 91 63 38 173 153 190 64 216 231 166 83 123 170 151 18 204 81 23 121 34 229 214 7 90 225 54 39 121 69 10 239 146 230 158 12 235 8 249 253 91 46 94 128 246 49 25 74 237 144 120 251 175 7 23 81 84 99 96 156 60 148 83 114 243 4 131 163 88 39 97 111 255 84 189 247 211 211 138 242 0 55 226 161 16 237 74 5 83 22 54 79 133 146 208 152 171 93 245 210 62 31 128 255 139 254 204 161 90 183 116 113 206 237 93 83 140 193 247 138 31 162 191 40 156 102 9 201 129 154 252 129 227 23 222 19 201 214 146 100 211 6 94 47 31 91 242 249 108 168 166 72 128 176 4 16 200 58 134 110 63 99 160 152 144 56 1 21 127 132 23 41 133 231 209 148 186 40 168 124 249 204 224 167 62 232 11 237 82 51 208 237 171 95 234 0 141 170 115 107 118 176 99 217 185 131 84 8 105 253 136 194 120 85 44 15 32 241 222 169 130 123 110 176 142 55 225 159 34 148 188 127 118 1 127 90 183 1 111 243 242 130 152 180 52 107 19 232 240 116 133 42 160 58 232 29 175 147 142 94 151 30 98 183 71 31 114 150 199 138 170 189 30 94 226 58 116 52 28 154 116 24 6 90 244 151 199 158 216 25 247 37 51 114 239 125 176 179 68 115 49 70 142 206 181 58 110 61 127 219 207 141 117 134 107 31 198 187 145 154 207 116 38 221 64 181 235 56 122 101 253 219 60 92 162 142 127 189 66 163 158 134 180 41 186 101 188 99 93 206 209 121 93 74 35 108 4 18 220 79 109 220 166 181 49 245 110 102 68 144 104 86 25 94 84 215 13 94 255 13 2 247 12 162 74 68 244 188 200 175 76 44 81 193 71 233 88 56 123 188 203 90 232 60 56 138 54 253 52 25 62 5 253 94 204 127 94 9 163 180 211 180 194 54 238 187 230 94 249 78 80 249 221 196 200 63 67 50 226 5 248 61 128 51 150 44 152 119 97 66 56 59 111 74 199 213 12 115 141 254 92 94 118 134 66 118 18 70 129 128 225 85 33 114 206 127 21 137 249 242 26 150 185 59 226 153 226 113 114 144 67 176 201 145 115 201 194 23 206 56 59 154 186 87 119 98 47 209 193 156 118 88 82 174 48 155 117 200 155 114 233 187 17 92 135 15 209 44 36 79 2 255 185 168 245 113 194 179 171 17 227 142 151 18 209 49 164 67 112 255 122 65 57 156 253 234 223 255 23 22 50 200 184 130 67 211 27 13 201 13 74 39 195 134 228 134 95 200 30 26 27 104 8 68 42 218 18 67 25 137 206 239 178 39 247 169 33 66 179 146 85 25 21 251 169 173 230 29 196 27 165 10 189 40 204 228 131 30 85 77 125 215 125 30 109 23 200 92 154 31 69 104 46 126 19 117 221 43 36 63 199 209 65 251 160 106 78 137 14 15 208 241 82 14 172 13 43 62 49 131 247 143 89 247 28 229 76 126 166 39 38 85 50 146 250 211 10 84 23 156 145 86 138 24 226 89 228 35 180 68 61 6 129 188 120 166 231 246 201 252 78 201 117 197 203 8 217 123 68 14 174 131 213 154 139 168 115 222 171 200 207 210 241 205 125 206 41 223 86 88 145 217 27 59 152 249 91 217 229 219 150 193 155 168 162 132 220 139 78 197 140 100 70 144 87 193 54 237 245 10 50 180 172 251 86 162 23 87 169 173 39 219 71 149 103 113 192 188 132 167 187 55 12 95 223 37 118 200 243 63 99 141 67 177 35 76 70 41 123 73 127 45 165 100 161 177 153 72 246 233 139 230 1 92 181 34 99 58 86 203 251 239 251 209 81 248 253 178 53 245 75 54 163 0 105 92 234 62 185 148 13 179 250 46 106 91 14 19 153 118 0 179 151 35 69 62 36 48 66 23 105 49 15 134 222 207 123 173 107 99 80 189 206 196 216 105 60 92 159 155 75 130 123 102 15 4 202 61 131 2 251 98 43 3 80 160 248 66 225 61 108 73 229 43 254 193 45 126 192 137 241 35 63 5 207 206 171 185 17 52 56 22 47 123 195 147 148 238 185 0 165 246 53 23 0 69 104 85 1 85 62 8 139 17 62 168 5 210 179 106 162 140 9 19 230 74 121 10 102 215 233 178 207 190 13 246 41 117 211 38 93 214 254 1 245 206 16 19 36 89 110 65 6 174 191 162 40 182 149 144 75 195 79 255 101 127 62 14 233 35 6 220 72 233 71 157 184 195 125 237 52 77 37 99 196 0 34 106 254 169 94 76 205 26 180 144 113 32 14 134 199 181 202 32 203 118 99 3 91 87 77 222 62 149 32 251 100 236 249 20 111 11 29 103 115 69 224 12 250 137 198 135 76 148 231 154 237 101 152 93 102 241 71 144 72 25 167 47 111 217 14 71 132 194 27 9 197 170 155 28 9 162 173 56 254 40 37 241 182 158 47 208 98 251 53 168 93 193 2 39 108 47 39 172 68 183 157 88 76 178 173 104 165 83 13 194 104 217 76 205 46 9 111 134 214 220 221 209 130 117 120 12 227 85 13 234 183 210 238 127 143 197 221 151 214 132 44 76 15 16 35 216 94 143 162 167 74 252 7 177 193 29 82 6 92 181 136 170 229 252 85 164 23 76 244 82 164 29 84 255 125 51 115 183 77 22 14 90 70 195 125 240 33 161 217 60 96 182 95 148 215 27 25 240 106 173 187 64 24 6 203 3 57 172 4 21 3 135 253 200 83 153 6 55 171 233 82 215 118 192 92 79 148 24 131 138 18 82 247 10 57 39 217 127 203 225 158 152 137 203 181 25 248 230 105 46 101 221 8 254 39 59 69 132 36 220 219 154 151 161 115 87 16 104 200 155 188 60 9 232 230 200 127 116 190 18 111 124 89 102 66 218 250 143 227 218 144 78 105 74 127 4 246 208 163 178 222 129 146 35 12 174 34 104 162 1 44 133 224 201 143 106 71 147 119 37 254 250 223 85 116 192 84 226 71 29 252 235 101 86 216 0 113 146 70 146 104 234 202 167 132 191 13 210 96 80 38 99 94 139 25 219 70 36 157 163 47 229 35 253 163 69 19 58 254 59 89 46 23 84 32 225 34 4 221 135 213 57 144 178 202 54 71 199 37 159 227 174 118 208 30 206 225 115 205 57 124 82 99 35 248 105 183 153 132 64 7 112 238 120 60 123 11 163 111 1 90 89 173 109 228 136 247 72 102 11 141 101 178 126 109 91 83 81 22 56 112 28 145 116 243 50 178 36 233 121 156 112 44 121 131 71 64 178 182 82 124 51 220 38 106 104 125 189 112 52 197 39 175 63 133 125 43 146 123 23 44 97 211 254 229 39 237 164 84 249 97 211 105 19 65 228 106 184 158 49 150 57 77 205 9 83 234 114 223 189 30 186 156 2 30 146 204 141 116 236 230 2 2 181 118 213 68 7 123 21 213 159 14 136 53 145 69 253 201 58 87 222 35 119 1 5 132 20 40 208 159 136 191 120 160 223 235 158 109 247 101 39 44 239 33 74 5 221 45 231 41 191 219 27 19 181 34 17 14 109 66 27 247 222 167 1 68 57 16 153 69 28 240 151 170 9 20 167 70 24 135 185 18 232 179 156 117 219 200 207 194 131 98 148 3 87 102 69 245 171 44 235 83 223 228 13 87 214 50 198 127 169 28 26 141 157 38 138 209 83 187 230 170 63 207 99 75 91 195 238 187 29 137 191 31 166 8 48 60 60 194 208 56 250 180 179 160 198 125 13 176 132 195 255 206 137 211 177 87 83 135 161 158 119 109 59 50 218 37 169 96 36 11 236 249 114 23 44 86 76 1 76 152 214 168 194 52 74 180 166 176 165 122 8 167 161 33 135 19 228 3 31 204 119 86 67 75 121 12 44 180 21 247 112 20 177 49 214 230 104 187 105 221 187 100 203 221 131 237 204 74 42 106 59 134 27 235 253 181 119 92 91 196 10 170 160 169 125 40 228 236 205 48 35 102 252 13 146 73 6 24 50 96 22 34 165 152 250 18 65 192 212 207 99 141 19 97 5 225 162 83 147 76 95 91 251 212 207 61 4 241 16 236 224 220 15 242 4 9 251 19 55 242 249 45 233 23 25 99 199 67 136 122 140 16 8 131 26 173 158 187 201 223 138 175 255 70 124 164 1 226 5 53 8 214 76 62 152 107 2 249 13 87 152 103 119 64 175 242 167 124 208 80 138 27 93 170 182 39 199 254 67 42 2 194 220 241 54 202 21 144 184 107 255 166 56 225 251 226 60 238 203 198 205 196 239 171 111 37 46 6 87 201 115 233 217 0 218 205 32 152 11 142 33 1 199 183 209 175 192 0 150 192 174 21 252 223 159 153 170 104 142 107 148 204 56 40 114 56 43 241 112 113 32 110 39 3 138 18 204 154 111 161 167 176 119 240 199 104 67 237 245 186 255 222 230 209 59 238 181 177 246 229 144 29 252 55 177 184 115 64 143 106 176 206 86 5 79 224 149 41 130 173 55 101 169 232 181 158 35 67 138 181 100 50 230 100 72 241 166 105 167 200 132 231 42 142 139 9 93 108 207 232 5 227 90 175 179 16 105 253 153 47 217 138 157 95 220 14 172 164 240 94 81 50 18 216 134 233 46 2 202 28 219 110 115 150 69 225 70 223 106 179 69 187 138 121 200 244 216 226 207 89 118 223 151 7 160 7 107 231 40 57 189 120 34 131 117 207 224 66 137 220 33 139 206 238 133 202 14 121 68 169 90 24 32 52 161 206 152 58 130 145 95 246 95 9 12 238 179 149 19 28 165 143 244 76 221 209 178 197 150 119 135 43 244 231 214 164 152 15 97 58 115 238 188 129 215 86 2 121 212 240 198 181 193 128 76 189 25 106 249 178 137 118 9 48 70 208 128 120 164 83 99 207 229 6 39 33 78 231 106 234 129 232 225 87 6 56 146 168 43 195 67 216 14 252 50 128 248 218 6 249 236 32 6 192 128 226 137 31 236 69 173 10 97 134 76 72 156 62 44 211 186 228 118 128 78 147 106 226 177 13 80 108 153 1 178 215 237 137 200 195 216 247 52 161 29 209 240 208 170 26 132 6 111 211 124 242 112 194 25 32 25 114 71 28 210 123 207 218 212 3 206 85 59 133 102 119 92 210 179 57 88 85 0 11 242 154 59 118 157 18 167 0 217 16 209 80 192 24 197 146 220 89 129 29 60 120 170 83 199 143 126 201 208 118 10 169 234 65 157 84 253 9 124 75 153 240 215 79 139 95 252 199 174 146 203 99 4 87 106 255 5 18 58 202 55 5 9 167 255 206 137 211 183 49 0 200 0 24 66 98 90 216 221 65 242 182 147 110 186 170 13 65 191 99 205 130 184 138 101 206 218 75 230 60 244 18 156 65 183 146 248 209 85 12 206 199 79 206 193 135 135 250 251 226 157 136 33 58 120 142 133 230 35 191 158 215 219 50 182 124 102 102 227 228 166 130 56 35 109 225 60 246 147 205 155 170 70 139 28 57 162 153 211 183 129 51 152 236 149 27 184 67 180 154 234 227 114 194 132 27 245 247 238 3 5 174 87 96 99 115 168 201 92 49 182 8 157 174 188 195 73 85 8 92 73 56 244 21 228 85 24 120 143 24 190 246 6 34 150 206 155 73 172 48 206 224 150 162 31 56 242 164 32 102 16 143 206 71 235 195 33 194 94 1 226 77 148 22 189 179 193 186 151 20 15 183 34 45 220 78 174 217 34 214 66 216 54 166 235 208 182 53 84 145 188 128 151 157 88 172 83 232 62 237 255 220 187 166 125 160 238 210 242 154 52 162 214 51 228 103 71 218 61 179 163 75 156 187 85 17 242 0 239 73 118 47 122 170 151 69 9 194 53 246 149 130 16 80 4 253 129 156 139 109 104 133 54 119 101 124 197 176 75 90 186 95 209 71 176 133 139 219 238 26 25 132 60 154 159 40 246 192 117 11 94 145 31 242 54 157 127 137 143 130 73 2 220 177 184 255 74 117 127 178 84 49 3 66 145 233 199 113 209 3 39 125 105 79 74 67 203 70 82 170 90 143 213 63 124 200 145 29 240 130 91 16 98 141 89 250 60 119 113 117 192 79 1 185 84 174 209 193 28 249 70 169 206 224 216 91 194 42 197 106 73 181 7 62 64 184 132 114 229 76 134 122 233 43 106 137 198 183 156 177 82 62 195 77 148 124 56 156 215 97 189 174 254 21 108 132 23 58 237 115 51 113 236 201 116 31 202 179 103 113 147 94 148 157 49 93 84 107 223 75 227 245 224 177 182 170 112 41 15 153 251 196 206 237 141 170 138 179 138 0 224 228 159 15 11 159 248 162 181 182 179 175 13 108 149 58 26 125 252 119 79 95 21 47 95 200 79 100 83 112 16 56 217 24 166 11 223 203 128 228 96 100 158 18 126 80 70 19 210 149 249 180 0 19 165 122 142 10 28 65 246 221 197 35 249 22 145 155 55 169 49 234 253 125 135 186 94 40 90 2 133 251 77 41 73 62 18 110 2 188 219 135 155 131 17 136 233 229 73 7 59 194 116 126 51 10 85 240 212 125 57 208 219 181 226 30 83 103 196 211 100 230 116 127 108 232 93 49 81 141 181 151 21 157 175 102 170 17 242 252 8 214 75 69 126 205 158 219 69 22 35 113 91 142 206 113 142 150 15 228 215 23 188 147 234 195 76 107 11 157 69 38 35 187 247 40 19 74 107 167 72 212 151 15 144 190 211 165 44 21 145 106 38 138 72 66 229 186 177 85 254 179 54 182 77 180 168 67 69 53 48 204 132 39 136 119 170 125 106 98 108 235 73 139 228 238 64 237 43 12 72 236 42 93 173 243 173 74 195 92 185 149 213 144 32 154 94 111 82 212 123 242 118 162 161 14 186 75 139 220 231 64 119 248 56 162 146 39 108 4 177 60 26 114 65 60 69 178 129 192 48 201 239 155 115 194 255 189 79 170 19 87 63 223 168 64 207 139 205 152 177 107 218 171 14 213 94 23 26 249 89 50 235 103 172 166 139 209 205 94 76 18 191 166 91 112 66 141 152 30 71 142 165 5 166 112 61 197 19 107 200 246 79 140 44 179 155 91 229 89 114 186 88 140 119 16 100 123 173 167 59 101 230 83 112 93 126 85 81 74 72 126 118 49 201 152 154 183 164 1 170 225 86 153 28 31 35 222 130 137 80 86 95 104 147 46 57 248 200 32 239 108 229 154 77 51 48 28 222 122 176 225 1 242 225 195 63 211 172 89 220 33 149 98 172 46 55 102 40 96 237 154 193 52 211 5 117 131 237 225 159 4 165 68 19 19 123 255 106 176 248 198 155 203 227 146 204 191 184 68 103 28 86 139 111 169 248 7 21 169 102 175 134 94 109 112 8 204 140 22 69 191 240 112 230 15 163 175 100 35 0 16 27 180 106 187 161 211 61 234 85 46 5 77 59 143 238 174 7 165 124 209 119 7 124 158 230 118 59 129 31 98 245 18 111 176 144 241 254 187 138 244 94 153 49 133 101 159 18 69 56 39 179 246 169 144 133 151 195 135 20 208 162 133 129 145 137 153 50 247 46 104 200 111 88 114 81 29 172 151 191 127 196 217 154 77 130 99 241 164 164 203 150 100 152 148 139 215 145 247 183 147 218 226 221 161 107 66 207 222 186 126 223 162 211 67 151 160 171 135 170 13 177 200 41 5 167 149 250 42 176 80 135 142 170 50 179 211 189 143 18 144 52 92 89 247 140 238 19 181 203 4 150 26 20 8 54 122 119 146 184 211 13 46 10 175 69 95 49 76 121 228 130 251 197 57 21 198 24 97 119 85 139 227 159 19 242 19 35 140 177 146 172 25 210 24 168 192 84 113 62 86 197 198 135 230 19 30 251 87 159 36 41 72 147 43 172 63 118 111 90 3 253 158 190 70 36 151 201 135 126 113 196 55 201 191 137 27 198 18 243 241 72 192 147 86 138 228 164 231 197 166 65 167 2 189 214 161 45 50 213 206 108 102 170 56 175 86 240 96 135 30 229 221 59 188 27 71 25 23 113 83 10 64 66 63 105 247 220 113 21 113 52 91 197 88 216 161 156 20 36 126 254 73 185 100 161 160 43 226 231 203 250 203 107 195 196 149 217 84 184 255 4 220 78 246 50 80 53 186 186 127 141 61 210 155 87 204 162 245 42 240 157 8 39 151 16 185 47 111 251 221 83 147 33 252 